<?xml version="1.0" standalone="no"?>
<!DOCTYPE svg PUBLIC "-//W3C//DTD SVG 20010904//EN"
 "http://www.w3.org/TR/2001/REC-SVG-20010904/DTD/svg10.dtd">
<svg version="1.0" xmlns="http://www.w3.org/2000/svg"
 width="2284.000000pt" height="653.000000pt" viewBox="0 0 2284.000000 653.000000"
 preserveAspectRatio="xMidYMid meet">
<metadata>
Created by potrace 1.16, written by Peter Selinger 2001-2019
</metadata>
<g transform="translate(0.000000,653.000000) scale(0.100000,-0.100000)"
fill="#000000" stroke="none">
<path d="M3270 6361 c-96 -18 -386 -125 -441 -162 -14 -10 -48 -26 -75 -35
-100 -33 -333 -175 -588 -357 -127 -91 -352 -304 -433 -412 -54 -71 -91 -147
-128 -267 -25 -80 -27 -97 -23 -225 3 -120 8 -148 32 -218 39 -110 94 -217
160 -311 31 -43 75 -106 98 -139 23 -33 67 -89 98 -125 31 -36 78 -94 105
-130 27 -36 90 -112 140 -170 125 -144 186 -224 252 -333 175 -287 260 -504
265 -680 l3 -87 -85 -30 c-47 -17 -112 -37 -145 -45 -86 -23 -213 -61 -345
-106 -63 -21 -189 -61 -280 -90 -161 -50 -416 -144 -576 -212 -125 -54 -507
-249 -625 -319 -196 -118 -438 -338 -484 -442 -57 -126 -55 -213 7 -337 24
-49 41 -68 87 -97 31 -20 83 -47 116 -60 121 -47 171 -55 345 -55 154 0 173 2
285 32 66 18 147 41 180 51 33 10 92 29 130 41 97 30 275 99 304 118 13 8 61
31 105 51 108 47 312 171 381 231 30 26 74 62 98 78 77 54 297 290 383 411 21
30 52 73 69 96 36 48 95 174 124 264 31 97 71 265 71 297 0 15 4 34 8 41 5 7
71 30 148 52 76 21 159 46 183 54 43 16 43 16 38 -7 -3 -12 -9 -44 -12 -72 -3
-27 -9 -72 -13 -100 -9 -56 12 -166 42 -223 23 -44 83 -110 117 -127 94 -49
198 -58 293 -25 170 58 500 286 751 517 l90 83 5 -158 c7 -190 22 -237 90
-272 88 -45 116 -7 80 110 -20 65 -22 87 -17 194 6 131 39 317 63 354 9 13 44
55 80 94 35 38 64 74 64 79 0 6 22 34 48 62 27 29 75 87 108 130 32 43 87 115
121 160 79 104 191 271 278 412 37 61 93 151 123 200 149 243 336 638 396 837
52 173 79 395 56 477 -16 60 -58 101 -104 101 -58 0 -87 -17 -169 -103 -96
-100 -141 -157 -240 -307 -116 -175 -132 -202 -154 -251 -11 -24 -47 -89 -80
-144 -117 -195 -330 -635 -401 -830 -16 -44 -50 -131 -75 -193 -48 -116 -51
-126 -141 -427 -79 -263 -89 -282 -192 -387 -162 -163 -335 -301 -569 -451
-156 -101 -253 -143 -350 -153 -83 -9 -106 5 -135 83 -19 49 -21 71 -17 143 6
85 34 218 56 258 7 12 78 54 181 106 296 147 515 310 614 457 17 25 45 65 61
89 27 39 30 51 30 121 0 92 -16 122 -88 158 -137 68 -309 -9 -545 -246 -122
-121 -257 -312 -313 -440 -48 -111 -70 -130 -224 -194 -81 -35 -253 -82 -271
-75 -7 3 -15 33 -19 73 -3 37 -15 97 -25 133 -11 36 -29 99 -41 140 -28 100
-84 235 -118 285 -193 281 -222 320 -381 509 -119 142 -251 306 -310 386 -36
48 -84 112 -106 141 -56 72 -109 181 -146 298 -27 88 -29 105 -25 196 11 215
106 375 371 625 137 129 481 357 721 477 275 138 489 201 644 190 77 -5 200
-44 233 -74 30 -27 68 -139 68 -201 0 -97 -48 -275 -87 -324 -6 -7 -25 -42
-42 -77 -17 -35 -64 -106 -104 -157 -39 -52 -82 -108 -95 -126 -34 -48 -122
-136 -160 -160 -23 -14 -42 -18 -63 -14 -26 5 -37 -2 -106 -72 -121 -123 -193
-218 -193 -256 0 -53 19 -70 73 -64 56 7 104 40 272 194 110 101 297 308 354
393 14 22 38 54 52 73 15 18 63 104 108 190 73 140 84 169 103 265 18 93 19
118 10 179 -15 94 -39 148 -101 222 -41 49 -68 71 -132 102 -79 40 -82 41
-207 45 -70 2 -147 0 -172 -4z m2652 -1058 c-6 -167 -71 -369 -214 -658 -142
-289 -200 -393 -312 -562 -34 -50 -85 -129 -114 -175 -30 -46 -83 -121 -118
-168 -35 -47 -78 -105 -95 -130 -38 -53 -220 -270 -226 -270 -17 0 38 197 83
298 26 59 41 96 117 292 93 238 326 701 485 965 63 105 132 220 154 257 51 87
216 264 232 248 7 -7 10 -44 8 -97z m-1741 -1712 l23 -18 -42 -64 c-60 -92
-209 -239 -312 -308 -83 -56 -248 -151 -263 -151 -14 0 -6 19 31 78 86 137
239 308 356 397 44 33 145 85 166 85 10 0 28 -8 41 -19z m-1456 -1033 c-3 -18
-15 -60 -25 -93 -10 -33 -21 -76 -25 -95 -12 -56 -89 -201 -174 -328 -92 -137
-316 -377 -420 -449 -36 -26 -77 -57 -91 -69 -66 -59 -348 -212 -535 -289
-146 -61 -295 -111 -470 -157 -111 -29 -132 -32 -280 -32 -129 0 -169 3 -205
18 -25 9 -65 24 -90 33 -57 20 -74 35 -110 99 -63 110 -29 202 139 377 75 79
262 218 374 280 51 27 110 62 132 77 54 37 404 206 485 235 36 13 128 47 205
75 77 29 178 65 225 81 165 55 346 117 413 143 37 14 77 26 90 26 12 0 94 22
182 50 88 27 166 49 173 49 10 1 12 -8 7 -31z m-1195 -272 c0 -2 -8 -10 -17
-17 -16 -13 -17 -12 -4 4 13 16 21 21 21 13z m-294 -131 c-11 -8 -25 -15 -30
-15 -6 0 -2 7 8 15 11 8 25 15 30 15 6 0 2 -7 -8 -15z"/>
<path d="M14935 6283 c-91 -12 -232 -51 -320 -90 -93 -40 -126 -58 -265 -138
-92 -53 -262 -187 -369 -290 -173 -167 -354 -402 -463 -600 -70 -128 -118
-232 -118 -256 0 -10 -4 -20 -9 -24 -13 -8 -78 -209 -86 -270 -5 -33 -26 -82
-63 -145 -30 -52 -73 -126 -95 -165 -22 -38 -53 -90 -68 -115 -135 -223 -306
-622 -408 -955 -111 -360 -148 -587 -144 -895 2 -180 8 -219 50 -355 42 -138
100 -239 193 -338 79 -84 179 -135 325 -166 69 -15 91 -15 160 -5 183 27 361
121 647 341 106 81 392 355 430 412 17 25 54 71 82 101 73 79 170 199 281 347
53 70 107 143 121 160 32 42 53 53 215 107 74 25 161 56 194 70 33 14 68 26
79 26 18 0 18 -1 0 -27 -10 -16 -30 -49 -44 -75 -14 -25 -47 -86 -75 -134 -27
-49 -66 -138 -87 -199 -37 -107 -38 -112 -28 -175 21 -121 81 -180 184 -180
48 0 70 6 115 31 133 75 244 173 361 321 25 32 47 57 50 58 3 0 10 -31 16 -69
20 -127 98 -237 182 -258 52 -13 121 -1 176 31 104 61 294 269 436 476 45 66
87 120 92 120 6 0 7 -8 3 -17 -4 -10 -17 -56 -29 -103 -13 -47 -54 -177 -91
-290 -149 -455 -151 -465 -100 -516 50 -50 107 -15 140 88 10 29 39 96 65 148
26 52 51 106 55 120 23 74 172 377 181 368 1 -2 7 -31 13 -66 21 -134 121
-278 223 -322 111 -49 245 -21 429 91 125 75 179 120 335 272 l141 137 6 -92
c13 -199 99 -363 221 -423 146 -71 299 -34 524 128 l84 60 43 -49 c99 -114
253 -137 432 -63 43 18 101 47 128 64 67 42 222 179 310 273 l70 75 6 -85 c8
-118 42 -181 119 -220 92 -48 158 -37 275 43 66 45 293 267 363 353 17 22 34
38 37 35 2 -3 -8 -39 -24 -80 -15 -41 -81 -234 -146 -429 -65 -195 -126 -365
-134 -378 -11 -15 -23 -20 -39 -17 -23 6 -123 -12 -347 -60 -66 -15 -167 -35
-225 -45 -58 -11 -157 -30 -220 -44 -283 -60 -547 -117 -564 -122 -10 -3 -41
-9 -70 -14 -76 -11 -334 -68 -386 -85 -25 -8 -83 -22 -130 -30 -47 -9 -123
-27 -170 -40 -47 -12 -177 -44 -290 -70 -218 -50 -319 -76 -520 -132 -69 -20
-179 -48 -245 -64 -66 -15 -187 -49 -270 -74 -82 -25 -199 -59 -260 -75 -60
-15 -144 -38 -185 -50 -41 -11 -124 -34 -185 -50 -60 -16 -153 -41 -205 -56
-52 -14 -122 -33 -155 -41 -33 -8 -80 -21 -105 -28 -25 -7 -74 -16 -109 -19
-35 -3 -69 -11 -76 -16 -39 -32 -17 -134 31 -146 37 -9 291 44 819 171 349 84
771 166 1055 205 74 10 209 30 300 44 382 58 633 79 960 79 286 1 315 -1 470
-26 219 -36 269 -47 275 -57 3 -5 -16 -41 -41 -81 -62 -95 -134 -251 -174
-374 -52 -159 -53 -386 -2 -454 62 -84 159 -113 238 -73 69 35 164 123 249
230 85 106 244 376 321 546 23 50 51 107 62 126 41 68 178 418 324 823 13 36
31 44 135 63 48 8 140 29 203 46 63 16 165 43 225 58 469 118 947 293 1290
473 110 57 223 141 236 174 24 63 -3 135 -62 166 -29 16 -49 17 -134 12 -203
-13 -402 -65 -720 -189 -262 -101 -668 -302 -944 -467 -114 -68 -131 -76 -131
-61 0 15 191 574 268 787 44 121 108 288 142 370 104 253 98 230 74 262 -29
38 -65 57 -95 50 -17 -5 -37 -30 -69 -88 -25 -45 -50 -96 -56 -114 -26 -71
-120 -212 -258 -385 -200 -250 -438 -460 -523 -460 -55 0 -64 38 -37 166 28
139 53 198 158 377 57 98 107 189 110 203 9 36 -11 101 -37 119 -12 8 -37 15
-56 15 -68 0 -141 -103 -240 -340 -27 -66 -48 -94 -179 -235 -228 -245 -367
-349 -544 -406 -87 -28 -158 -20 -200 21 -47 48 -40 67 80 192 278 290 442
551 442 701 0 81 -38 149 -100 180 -43 22 -56 24 -92 15 -23 -5 -65 -21 -92
-36 -57 -31 -169 -138 -217 -209 -136 -197 -229 -469 -231 -672 0 -26 -3 -52
-6 -57 -11 -15 -83 -68 -160 -117 -249 -161 -376 -150 -435 38 -19 62 -22 91
-21 247 0 146 3 180 17 200 9 12 50 66 91 118 41 52 99 129 127 170 29 41 69
95 88 120 66 82 207 284 248 355 22 39 74 123 114 188 133 212 148 239 260
467 107 217 183 390 227 515 28 79 56 211 48 230 -3 8 -2 25 3 38 5 14 5 45
-2 77 -26 138 -112 184 -222 121 -185 -107 -411 -423 -668 -936 -192 -385
-380 -930 -453 -1315 -9 -47 -24 -101 -34 -120 -28 -54 -213 -243 -324 -333
-154 -123 -277 -199 -394 -243 -97 -36 -146 -29 -198 28 -36 38 -68 143 -68
221 l-1 69 65 41 c36 22 92 55 125 74 104 60 259 179 331 255 194 205 234 355
121 455 -50 44 -95 49 -188 20 -190 -59 -404 -271 -613 -605 -15 -24 -29 -42
-31 -40 -7 7 86 283 133 393 26 60 67 144 92 186 107 182 139 239 232 414 76
144 249 506 301 630 37 88 123 360 141 446 33 153 38 186 40 269 2 144 -50
209 -130 159 -30 -18 -47 -45 -104 -163 -37 -78 -80 -170 -95 -206 -15 -36
-40 -90 -56 -121 -16 -31 -29 -62 -29 -69 0 -7 -7 -26 -15 -43 -56 -122 -191
-477 -370 -972 -18 -49 -47 -130 -65 -180 -18 -49 -36 -106 -41 -125 -10 -47
-54 -171 -74 -211 -21 -39 -270 -393 -362 -513 -76 -100 -225 -269 -293 -334
-53 -50 -140 -94 -178 -90 -42 5 -54 39 -48 138 4 69 12 101 42 170 20 47 44
105 54 130 10 25 48 105 84 179 73 148 81 193 46 246 -11 17 -20 44 -20 60 0
50 -33 92 -82 106 -64 17 -210 3 -274 -26 -79 -35 -156 -88 -214 -146 -29 -29
-77 -67 -105 -85 -61 -36 -482 -206 -500 -202 -9 2 5 35 42 98 143 246 215
374 230 413 9 23 34 75 55 115 441 836 579 1719 342 2184 -40 78 -64 109 -148
194 -80 80 -116 108 -176 137 -127 61 -275 87 -405 70z m-235 -88 c0 -8 -82
-47 -87 -41 -10 10 9 26 40 35 39 11 47 12 47 6z m489 -36 c108 -25 227 -107
317 -219 39 -48 60 -87 83 -154 48 -141 59 -191 70 -337 25 -308 -49 -742
-186 -1099 -14 -36 -37 -94 -51 -130 -138 -357 -483 -994 -647 -1196 -28 -34
-45 -44 -109 -62 -296 -86 -520 -92 -731 -17 -160 56 -277 149 -341 270 -49
92 -104 278 -104 350 0 19 -4 36 -8 39 -10 6 -8 136 2 266 10 113 65 331 116
455 23 55 48 119 55 142 35 108 132 278 277 488 98 142 142 194 231 274 280
251 406 284 469 119 13 -34 28 -62 33 -60 15 4 33 62 34 107 1 31 -7 51 -37
90 -50 65 -91 92 -157 100 -141 18 -256 -46 -481 -267 -78 -76 -146 -138 -152
-138 -13 0 -79 -43 -159 -102 -49 -37 -144 -140 -212 -231 -20 -26 -37 -44
-39 -39 -1 5 23 58 55 118 31 60 69 134 85 164 78 154 270 401 445 571 99 97
285 244 395 312 77 48 236 122 326 152 124 40 324 57 421 34z m-835 -143 c-10
-8 -21 -12 -24 -10 -5 6 21 24 34 24 6 0 1 -6 -10 -14z m-84 -56 c-35 -31 -50
-37 -50 -21 0 14 50 51 69 51 11 -1 5 -10 -19 -30z m-550 -534 c0 -3 -4 -8
-10 -11 -5 -3 -10 -1 -10 4 0 6 5 11 10 11 6 0 10 -2 10 -4z m5430 -50 c0 -3
-4 -8 -10 -11 -5 -3 -10 -1 -10 4 0 6 5 11 10 11 6 0 10 -2 10 -4z m178 -91
c6 -103 -49 -282 -154 -508 -41 -87 -74 -161 -74 -166 0 -12 -120 -243 -136
-261 -7 -8 -18 -28 -24 -44 -13 -36 -157 -267 -290 -466 -142 -213 -352 -489
-358 -471 -10 29 162 559 251 771 161 387 319 684 500 938 93 131 156 204 211
244 58 41 70 35 74 -37z m-1644 -157 c-10 -51 -11 -74 -3 -77 6 -2 2 -12 -9
-25 -11 -11 -29 -52 -41 -91 -12 -38 -27 -86 -33 -105 -6 -19 -30 -75 -53
-125 -24 -49 -58 -124 -75 -165 -18 -41 -51 -111 -72 -155 -22 -43 -64 -133
-92 -200 -51 -116 -115 -233 -116 -208 0 27 336 903 413 1075 23 51 83 148 91
148 2 0 -3 -33 -10 -72z m1658 -80 c-15 -15 -24 -6 -16 16 5 12 10 14 17 7 8
-8 8 -14 -1 -23z m-100 -200 c-7 -7 -12 -8 -12 -2 0 14 12 26 19 19 2 -3 -1
-11 -7 -17z m-3553 -115 c0 -5 -4 -17 -9 -28 -8 -18 -9 -17 -9 8 -1 15 4 27 9
27 6 0 10 -3 9 -7z m1852 -120 c-8 -15 -10 -15 -11 -2 0 17 10 32 18 25 2 -3
-1 -13 -7 -23z m-4036 -85 c-74 -161 -156 -420 -155 -493 1 -11 -3 -85 -9
-165 -8 -132 -3 -298 15 -415 14 -99 83 -254 151 -340 45 -57 163 -175 175
-175 4 0 25 -16 46 -34 98 -89 261 -136 497 -143 133 -4 179 -1 270 16 60 11
111 18 114 16 9 -9 -114 -170 -204 -267 -33 -35 -98 -110 -143 -166 -135 -164
-327 -340 -557 -507 -44 -33 -81 -63 -83 -67 -2 -4 -9 -8 -16 -8 -7 0 -32 -13
-57 -28 -132 -83 -292 -132 -427 -132 -58 0 -77 5 -141 39 -109 56 -162 112
-224 236 -95 188 -113 570 -42 895 8 36 17 85 20 110 4 25 21 92 40 150 18 58
48 152 65 210 33 109 79 235 110 305 10 22 39 91 66 154 79 191 246 496 270
496 5 0 10 -11 12 -25 4 -33 23 -71 33 -64 4 2 8 37 8 77 1 104 3 116 31 172
31 65 168 260 176 252 2 -2 -16 -47 -41 -99z m5471 -254 c-10 -14 -20 -23 -23
-21 -2 3 3 17 13 31 9 15 19 24 22 22 2 -3 -3 -17 -12 -32z m-3456 -98 c0 -3
-4 -8 -10 -11 -5 -3 -10 -1 -10 4 0 6 5 11 10 11 6 0 10 -2 10 -4z m-79 -162
c-16 -33 -30 -51 -31 -41 0 28 47 114 57 103 2 -2 -9 -30 -26 -62z m3399 -53
c-20 -30 -40 -44 -23 -18 27 42 38 56 41 52 2 -2 -6 -18 -18 -34z m-3514 -198
c-21 -38 -25 -42 -20 -18 7 33 33 79 40 72 3 -3 -6 -27 -20 -54z m2308 -220
c-21 -89 -119 -217 -240 -314 -67 -53 -324 -212 -332 -204 -6 6 64 118 115
182 125 157 254 266 398 338 63 31 67 31 59 -2z m1806 -58 c0 -67 -66 -200
-168 -340 -48 -66 -249 -285 -261 -285 -23 0 74 295 126 384 84 145 215 274
281 275 19 1 22 -4 22 -34z m-4260 -16 c-7 -11 -14 -18 -17 -15 -8 8 5 36 17
36 7 0 7 -6 0 -21z m860 -128 c0 -6 -42 -91 -92 -190 -71 -138 -113 -205 -178
-287 -150 -188 -418 -428 -502 -449 -24 -6 -26 -4 -31 37 -6 53 38 188 92 286
183 329 325 488 466 523 25 6 85 29 133 50 91 40 112 45 112 30z m-940 -9 c0
-5 -7 -17 -15 -28 -14 -18 -14 -17 -4 9 12 27 19 34 19 19z m7358 -514 c-6
-17 -157 -108 -292 -176 -73 -36 -104 -57 -95 -62 8 -6 1 -11 -23 -15 -20 -4
-39 -14 -42 -22 -4 -9 -13 -12 -24 -9 -10 4 -45 -6 -78 -20 -32 -14 -144 -55
-249 -90 -104 -34 -224 -75 -265 -89 -95 -33 -263 -79 -405 -110 -60 -13 -127
-29 -148 -35 -22 -6 -40 -10 -42 -8 -6 6 209 136 335 203 69 36 168 84 220
106 52 23 122 55 155 71 191 96 579 221 780 252 120 18 178 20 173 4z m-193
-168 c-3 -5 -13 -10 -21 -10 -8 0 -12 5 -9 10 3 6 13 10 21 10 8 0 12 -4 9
-10z m-75 -28 c0 -5 -9 -17 -20 -27 -22 -20 -26 -14 -10 16 11 19 30 26 30 11z
m-232 -124 c-5 -15 -48 -24 -48 -10 0 14 12 22 33 22 10 0 17 -5 15 -12z
m-425 -152 c4 -10 -4 -15 -28 -18 -36 -4 -37 8 -1 22 11 5 22 9 22 9 1 1 4 -5
7 -13z m-173 -56 c-24 -15 -37 -11 -16 5 11 8 22 12 25 9 3 -3 -1 -9 -9 -14z
m-270 -69 c0 -5 -9 -11 -20 -14 -22 -6 -28 8 -7 16 19 8 27 8 27 -2z m-130
-40 c0 -9 -52 -22 -60 -15 -7 7 23 24 43 24 9 0 17 -4 17 -9z m-125 -26 c-67
-25 -105 -34 -105 -25 0 13 72 39 110 39 l35 0 -40 -14z m-710 -156 c-3 -8
-26 -26 -51 -39 -39 -22 -46 -23 -54 -10 -7 11 -5 16 7 19 9 1 35 13 57 26 44
25 49 25 41 4z m119 -14 c-21 -28 -34 -35 -63 -36 -23 -1 -28 -3 -13 -6 12 -2
22 -8 22 -13 0 -4 -30 -32 -67 -61 -100 -78 -322 -298 -430 -427 -53 -63 -102
-116 -109 -119 -8 -3 -31 2 -52 10 -36 15 -103 29 -197 42 -22 4 -49 9 -60 12
-114 33 -866 40 -1084 9 -63 -9 -144 -16 -180 -16 -36 0 -93 -7 -126 -14 -33
-8 -63 -12 -67 -10 -4 3 -45 0 -90 -6 -183 -25 -303 -38 -307 -34 -2 2 -2 6 1
9 6 6 127 39 278 75 52 12 110 31 128 42 17 11 32 15 32 9 0 -6 15 -8 38 -5
67 9 81 14 78 27 -1 6 -1 9 1 5 7 -12 31 -10 56 4 12 6 32 13 45 14 12 2 39
13 59 25 25 16 38 19 41 11 6 -19 48 -14 172 18 63 16 156 39 205 50 138 31
175 42 170 51 -9 14 15 21 31 8 12 -10 19 -8 39 11 20 18 29 21 46 14 26 -12
165 7 279 37 41 10 98 23 125 29 28 5 106 22 175 39 69 17 190 41 269 55 105
19 147 30 154 42 7 12 11 13 17 4 10 -16 213 30 285 65 28 14 56 25 63 25 6 0
12 5 12 10 0 8 28 25 48 29 2 1 -9 -15 -24 -34z m-230 5 c-6 -6 -21 -12 -33
-15 -13 -2 -42 -16 -66 -30 -24 -14 -49 -25 -56 -25 -15 0 55 48 96 66 37 16
74 19 59 4z m-251 -71 c-11 -11 -157 -33 -177 -26 -15 5 110 34 154 36 24 1
31 -2 23 -10z m134 -25 c-3 -3 -12 -4 -19 -1 -8 3 -5 6 6 6 11 1 17 -2 13 -5z
m-494 -48 c-10 -7 -49 -18 -88 -25 -38 -7 -81 -20 -93 -28 -13 -8 -26 -12 -29
-9 -7 7 67 39 147 64 67 20 96 19 63 -2z m-223 -36 c-8 -5 -24 -9 -35 -9 -16
1 -16 2 5 9 35 11 48 11 30 0z m1090 5 c0 -2 -16 -48 -36 -102 -20 -54 -46
-127 -59 -163 -100 -287 -386 -853 -502 -995 -59 -72 -157 -164 -198 -186 -43
-23 -44 -23 -64 -5 -62 56 -52 241 23 439 55 144 176 355 197 342 16 -11 10
-34 -21 -68 -42 -49 -39 -58 18 -50 66 8 97 26 117 69 21 45 14 92 -21 134
l-26 30 40 53 c113 149 532 545 532 502z m-1160 -25 c-8 -5 -46 -22 -84 -36
-61 -24 -75 -26 -130 -18 l-61 9 38 12 c33 10 38 9 33 -3 -4 -10 2 -14 17 -14
40 0 125 29 131 45 3 9 18 15 38 15 25 0 29 -3 18 -10z m-284 -57 c-6 -7 -55
-26 -108 -43 -45 -14 -32 3 20 27 44 20 103 31 88 16z m-162 -31 c6 -10 -101
-42 -139 -42 -14 0 -37 -11 -52 -26 -23 -24 -62 -44 -83 -44 -17 0 2 29 23 36
12 4 35 17 50 30 16 14 42 24 60 24 18 1 46 7 62 15 35 16 72 19 79 7z m-79
-62 c3 -5 -1 -10 -10 -10 -9 0 -13 5 -10 10 3 6 8 10 10 10 2 0 7 -4 10 -10z
m-255 -10 c0 -11 -31 -29 -71 -40 -17 -5 -29 -5 -29 1 0 5 8 9 18 9 9 0 31 9
47 20 35 23 35 23 35 10z m-142 -42 c-3 -7 -21 -16 -41 -19 -20 -3 -46 -14
-56 -23 -11 -10 -25 -16 -32 -14 -17 6 38 44 81 56 48 14 52 14 48 0z m-258
-74 c-41 -13 -79 -22 -85 -20 -5 2 4 7 20 11 17 5 39 14 50 21 11 8 35 14 55
13 30 -1 24 -4 -40 -25z m-135 -25 c-22 -12 -43 -27 -47 -33 -5 -7 -8 -4 -8 7
0 11 13 24 33 32 50 22 66 17 22 -6z m-131 -44 c-13 -19 -25 -25 -54 -25 -21
0 -57 -7 -80 -15 -23 -8 -59 -15 -80 -15 -42 0 -65 -20 -57 -50 3 -14 -1 -24
-15 -31 -17 -9 -19 -8 -14 9 8 23 -9 39 -21 20 -11 -17 -61 -43 -69 -35 -10
10 6 27 27 27 10 0 19 4 19 10 0 5 11 12 25 16 14 3 25 12 25 18 0 18 45 40
65 32 9 -3 37 1 61 9 25 8 59 15 77 15 18 0 46 9 62 19 41 27 48 25 29 -4z
m1246 -49 c0 -3 -4 -8 -10 -11 -5 -3 -10 -1 -10 4 0 6 5 11 10 11 6 0 10 -2
10 -4z m-33 -12 c-3 -3 -12 -4 -19 -1 -8 3 -5 6 6 6 11 1 17 -2 13 -5z m-1648
-41 c1 -5 -11 -11 -27 -14 -16 -3 -40 -13 -53 -22 -33 -24 -49 -21 -19 4 48
39 94 54 99 32z m1451 13 c0 -2 -7 -6 -15 -10 -8 -3 -15 -1 -15 4 0 6 7 10 15
10 8 0 15 -2 15 -4z m529 -12 c2 -2 -7 -4 -22 -4 -14 0 -29 5 -32 10 -6 10 42
4 54 -6z m-1959 -34 c0 -5 -8 -10 -17 -10 -15 0 -16 2 -3 10 19 12 20 12 20 0z
m-200 -5 c0 -2 -10 -9 -22 -15 -22 -11 -22 -10 -4 4 21 17 26 19 26 11z m-188
-63 c-7 -2 -10 -8 -6 -13 3 -5 -2 -9 -10 -9 -9 0 -16 4 -16 8 0 14 23 31 34
25 6 -4 6 -8 -2 -11z"/>
<path d="M9398 5698 c-25 -20 -188 -244 -242 -333 -111 -182 -164 -280 -295
-540 -44 -88 -93 -181 -109 -206 l-30 -46 -123 -22 c-215 -38 -387 -69 -604
-110 -302 -57 -689 -130 -839 -157 -70 -13 -135 -29 -143 -36 -20 -17 -12 -92
14 -127 l20 -26 277 -3 c162 -1 284 2 294 7 14 8 15 10 2 14 -23 7 -178 38
-235 46 -27 5 -38 9 -24 10 14 0 82 13 150 27 68 14 165 32 214 40 50 9 223
42 385 74 367 73 522 101 528 96 6 -6 -37 -136 -54 -162 -12 -21 -28 -57 -99
-231 -19 -45 -48 -111 -65 -147 -16 -36 -30 -68 -30 -72 0 -13 -117 -172 -170
-230 -30 -33 -107 -118 -170 -189 -111 -124 -457 -449 -506 -476 -13 -7 -27
-10 -30 -6 -3 3 -12 47 -20 99 -7 51 -21 124 -30 161 -25 102 -17 136 59 255
95 149 102 221 25 265 -35 21 -37 21 -72 4 -76 -36 -195 -246 -196 -343 0 -68
-20 -96 -281 -388 -162 -181 -323 -331 -408 -378 -85 -48 -108 -49 -116 -5 -7
35 6 122 29 199 22 71 123 320 161 396 47 95 69 163 62 192 -11 41 -103 131
-145 142 -113 30 -130 32 -184 20 -29 -7 -64 -18 -78 -26 -14 -7 -47 -26 -75
-41 -27 -15 -65 -39 -85 -54 -46 -36 -195 -116 -240 -129 -53 -15 -302 -120
-314 -132 -27 -27 -34 -9 -34 98 0 59 -1 119 -1 133 -1 33 -57 118 -87 131
-38 17 -70 2 -101 -49 -26 -43 -29 -56 -27 -118 1 -38 7 -104 13 -145 9 -56 8
-93 0 -148 l-12 -73 -81 -61 c-113 -85 -277 -229 -363 -319 -167 -173 -223
-272 -226 -393 -2 -73 -1 -76 32 -110 97 -100 191 -80 374 77 96 83 213 245
303 421 58 113 114 259 114 296 0 57 17 75 117 120 115 51 204 82 212 74 3 -3
-3 -20 -13 -37 -10 -18 -31 -54 -45 -82 -15 -27 -44 -80 -64 -116 -76 -136
-112 -312 -83 -411 20 -70 44 -101 101 -128 l45 -22 76 23 c63 19 87 32 142
81 85 75 168 163 244 258 74 92 72 90 64 63 -4 -12 -2 -58 3 -103 15 -114 56
-191 120 -222 85 -41 153 -21 281 83 164 133 342 329 533 586 33 46 62 82 63
80 2 -2 8 -36 14 -77 6 -41 20 -123 32 -182 l21 -107 -122 -118 c-198 -191
-271 -309 -256 -411 11 -76 89 -132 185 -132 72 0 183 52 232 109 91 107 144
280 132 431 l-6 86 77 70 c222 200 380 353 467 450 53 60 108 123 123 139 33
37 33 36 -35 -155 -92 -261 -180 -657 -165 -739 17 -91 84 -159 167 -168 37
-4 51 0 98 32 30 20 75 60 100 88 25 29 78 87 119 131 63 69 206 250 231 295
16 29 21 3 9 -40 -7 -24 -13 -103 -13 -175 -1 -128 0 -131 29 -180 33 -53 101
-97 139 -89 12 2 28 4 37 4 21 1 108 60 170 115 74 65 268 282 279 312 7 17
14 24 20 18 6 -6 4 -30 -6 -64 -9 -30 -18 -102 -21 -160 l-5 -106 44 -64 c45
-68 85 -96 152 -107 100 -16 325 184 454 405 106 180 152 325 152 479 l0 71
68 23 c37 12 122 48 189 80 68 31 125 53 128 49 3 -5 -8 -49 -25 -97 -17 -49
-37 -111 -45 -140 -9 -28 -35 -93 -59 -145 -110 -231 -206 -472 -206 -513 0
-29 83 -105 115 -105 14 0 98 88 115 120 29 55 192 276 275 370 170 194 258
290 266 290 6 0 7 -59 3 -152 -8 -194 4 -279 52 -368 47 -86 95 -134 172 -172
59 -29 66 -30 139 -24 84 8 191 48 253 95 19 14 54 38 77 53 24 15 43 31 43
35 0 5 17 27 39 51 44 48 41 50 -24 22 -26 -11 -107 -38 -181 -60 -223 -67
-320 -51 -377 60 -37 74 -44 161 -24 315 9 66 19 154 22 195 6 75 6 76 -29
121 -19 26 -42 49 -50 52 -19 8 -69 -7 -112 -32 -57 -34 -216 -175 -288 -256
-106 -118 -110 -115 -56 38 25 73 51 141 57 152 39 73 19 165 -46 209 -72 49
-144 36 -421 -74 -55 -22 -106 -40 -114 -40 -7 0 -25 17 -40 39 -15 21 -39 44
-54 51 -46 20 -125 24 -158 7 -46 -23 -171 -151 -264 -267 -110 -138 -207
-249 -342 -390 -61 -63 -131 -137 -157 -164 -60 -63 -209 -162 -223 -148 -15
15 6 152 40 257 39 117 122 303 174 384 56 88 108 200 108 231 0 38 -26 68
-71 80 -50 14 -62 7 -108 -62 -136 -208 -239 -341 -467 -608 -88 -103 -318
-330 -333 -330 -6 0 -22 -12 -36 -27 l-25 -28 0 47 c0 42 51 323 81 443 7 28
48 145 91 260 83 222 112 293 184 450 7 17 30 68 50 115 41 97 83 166 170 283
33 45 84 120 114 167 177 282 153 261 315 288 144 24 183 30 500 72 121 17
292 42 380 56 279 44 347 53 495 69 80 9 181 22 225 30 44 8 141 24 215 35 75
11 176 32 225 46 50 14 113 30 140 36 28 6 59 18 70 26 18 12 3 13 -120 7 -77
-3 -158 -8 -180 -10 -22 -1 -86 -5 -142 -9 -56 -3 -184 -15 -285 -26 -271 -31
-345 -38 -433 -45 -114 -9 -656 -78 -936 -121 -93 -14 -176 -24 -183 -22 -19
4 37 145 141 358 205 417 253 541 239 615 -13 67 -76 106 -118 73z m-133 -470
c-14 -49 -180 -385 -255 -518 -38 -66 -68 -93 -55 -49 15 52 300 589 312 589
2 0 1 -10 -2 -22z m710 -1828 c-3 -5 -14 -10 -23 -10 -15 0 -15 2 -2 10 20 13
33 13 25 0z m-3459 -102 c-46 -108 -64 -141 -113 -218 -87 -134 -96 -146 -189
-258 -129 -156 -248 -270 -340 -324 -43 -25 -83 -44 -87 -41 -20 12 21 166 72
274 80 168 167 296 281 410 108 109 125 120 258 159 132 39 136 39 118 -2z
m3524 -92 c0 -40 -48 -193 -81 -259 -63 -123 -191 -293 -270 -356 -59 -47
-155 -98 -165 -88 -4 4 -7 38 -6 75 2 116 86 315 218 520 l79 122 45 -5 c25
-3 72 1 105 8 69 15 75 14 75 -17z m-4747 -468 c-4 -13 -14 -34 -23 -48 -9
-14 -42 -73 -74 -131 -68 -125 -177 -265 -241 -309 -61 -42 -135 -74 -146 -63
-10 10 37 114 83 180 50 73 180 209 292 305 55 48 104 88 108 88 3 0 4 -10 1
-22z m2082 -230 c-10 -73 -71 -185 -123 -225 -37 -28 -116 -53 -128 -40 -22
22 209 314 249 317 5 0 6 -24 2 -52z"/>
<path d="M9405 4229 c-40 -11 -55 -34 -55 -87 0 -37 6 -50 34 -78 26 -26 42
-34 71 -34 29 0 45 8 71 34 37 37 43 70 19 95 -8 9 -23 26 -33 39 -21 28 -68
41 -107 31z"/>
</g>
</svg>
